<?xml version="1.0" encoding="UTF-8"?>
<svg width="256px" height="256px" viewBox="0 0 256 256" version="1.1" xmlns="http://www.w3.org/2000/svg">
    <title>BestAPI Logo</title>
    <g stroke="none" stroke-width="1" fill="none" fill-rule="evenodd">
        <rect fill="#2563EB" x="0" y="0" width="256" height="256" rx="64"></rect>
        <path d="M76.8,179.2 L76.8,76.8 L128,76.8 C142.4,76.8 153.6,80 161.6,86.4 C169.6,92.8 173.6,102.4 173.6,115.2 C173.6,121.6 172,127.2 168.8,132 C165.6,136.8 161.6,140.8 156.8,144 C162.4,146.4 166.4,150.4 169.6,156 C172.8,161.6 174.4,168 174.4,175.2 C174.4,188 170.4,198.4 162.4,204.8 C154.4,211.2 143.2,214.4 128.8,214.4 L76.8,214.4 L76.8,179.2 Z M102.4,134.4 L124.8,134.4 C132,134.4 137.6,132.8 141.6,129.6 C145.6,126.4 147.6,121.6 147.6,115.2 C147.6,108.8 145.6,104 141.6,100.8 C137.6,97.6 132,96 124.8,96 L102.4,96 L102.4,134.4 Z M102.4,195.2 L126.4,195.2 C133.6,195.2 139.2,193.6 143.2,190.4 C147.2,187.2 149.2,182.4 149.2,176 C149.2,169.6 147.2,164.8 143.2,161.6 C139.2,158.4 133.6,156.8 126.4,156.8 L102.4,156.8 L102.4,195.2 Z" fill="#FFFFFF" fill-rule="nonzero"></path>
    </g>
</svg>