<?xml version="1.0" encoding="UTF-8"?>
<svg version="1.1" xmlns="http://www.w3.org/2000/svg" width="512" height="512">
<path d="M0 0 C1.14764832 -0.01007584 1.14764832 -0.01007584 2.31848145 -0.02035522 C4.83510935 -0.03927297 7.35146957 -0.04325652 9.86816406 -0.04541016 C11.6292532 -0.0518434 13.39034128 -0.05857215 15.15142822 -0.06558228 C18.83990962 -0.07754021 22.52829747 -0.08126473 26.21679688 -0.08007812 C30.92185908 -0.07987525 35.62631514 -0.10715128 40.33123398 -0.14162254 C43.96887923 -0.16396434 47.60638041 -0.16791341 51.24408722 -0.16685867 C52.97748143 -0.16920469 54.71088021 -0.17797133 56.44420624 -0.19352341 C68.50456009 -0.29158652 79.98581105 0.43331636 89.13378906 9.29052734 C95.22668521 16.88905834 97.23827331 23.8077138 97.94628906 33.35302734 C99.36471956 48.77642108 104.91142981 60.69472766 116.89550781 70.72412109 C125.27712037 76.58978712 135.13273 79.68881016 145.32128906 79.66552734 C146.43503906 79.66311035 146.43503906 79.66311035 147.57128906 79.66064453 C154.28032362 79.51290672 159.97399137 77.96279252 166.13378906 75.29052734 C166.98972656 74.92056641 167.84566406 74.55060547 168.72753906 74.16943359 C170.2254362 73.50559282 171.71656937 72.82598595 173.19628906 72.12255859 C180.56066231 68.96003541 189.22023612 69.36887849 196.75878906 71.72802734 C207.24570071 76.19289118 213.52688338 84.47547389 218.82128906 94.22802734 C220.01385571 96.34659669 221.20656944 98.46508324 222.39941406 100.58349609 C223.00720703 101.67839355 223.615 102.77329102 224.24121094 103.90136719 C227.4525586 109.65213193 230.7693251 115.34149036 234.07128906 121.04052734 C235.84367962 124.11701798 237.61479019 127.1942265 239.38330078 130.27294922 C240.59446294 132.36081035 241.82111715 134.43973294 243.06005859 136.51123047 C243.68380371 137.55730469 244.30754883 138.60337891 244.95019531 139.68115234 C245.79432983 141.08155762 245.79432983 141.08155762 246.65551758 142.51025391 C250.7832439 150.27351523 251.35683789 158.67900921 250.13378906 167.29052734 C246.90409717 177.4853199 240.78350575 183.88291576 232.13378906 189.72802734 C221.59014183 196.9648034 215.51945866 207.07383455 212.75878906 219.60302734 C210.70359969 232.82403939 213.66129795 245.17498501 221.13378906 256.29052734 C225.61228415 262.30037882 230.55224931 266.4068747 236.73925781 270.56005859 C244.06699192 275.85563153 248.18999748 282.48020571 250.13378906 291.29052734 C251.76182511 305.22114508 245.94023295 315.09081369 239.25878906 326.91552734 C238.59642951 328.09637663 237.93432456 329.27736876 237.27246094 330.45849609 C232.7896688 338.43878905 228.23399693 346.37736606 223.63378906 354.29052734 C223.08352051 355.23750488 222.53325195 356.18448242 221.96630859 357.16015625 C207.23409252 382.31413365 207.23409252 382.31413365 195.02832031 386.62646484 C183.9762469 389.16202824 175.08414422 387.17575039 165.13378906 382.29052734 C154.23686366 377.14612666 142.33846925 376.37460586 130.75878906 379.85302734 C117.69701435 384.97038018 108.23769865 393.07471512 102.14160156 405.73583984 C99.79199756 411.69181278 98.81867303 417.35352749 98.25878906 423.66552734 C97.12706317 434.31107438 94.12319863 441.85323145 86.13378906 449.29052734 C79.18745659 454.67803717 72.10297541 456.59671174 63.32177734 456.56518555 C62.20076126 456.57285194 62.20076126 456.57285194 61.05709839 456.58067322 C58.60601616 456.59448293 56.15521788 456.5936189 53.70410156 456.59130859 C51.98688657 456.59520046 50.26967253 456.59953614 48.55245972 456.60429382 C44.9599088 456.61173766 41.36745618 456.61147826 37.77490234 456.60620117 C33.18981034 456.60041114 28.60512291 456.61733512 24.02009773 456.64054585 C20.47514526 456.65533709 16.93028899 456.65614754 13.38531113 456.65303612 C11.69576085 456.65354669 10.00620481 456.65873449 8.31668472 456.66884804 C-3.95843657 456.73331273 -14.53671655 456.3953629 -23.90527344 447.31396484 C-31.01053274 439.79530863 -33.08060255 433.26247802 -33.74121094 423.10302734 C-35.07979109 407.66883799 -40.60380193 396.21433204 -52.37011719 386.11474609 C-60.96304535 379.83478138 -71.07051884 376.8930682 -81.61621094 376.91552734 C-82.40825928 376.91713867 -83.20030762 376.91875 -84.01635742 376.92041016 C-90.59589287 377.05735794 -95.91928105 378.43328904 -101.86621094 381.29052734 C-103.5112913 382.02139122 -105.15709165 382.75063727 -106.80371094 383.47802734 C-107.49335937 383.80158203 -108.18300781 384.12513672 -108.89355469 384.45849609 C-116.3031394 387.58372687 -124.91348596 387.22443488 -132.49121094 384.85302734 C-143.66292394 380.07582566 -149.77205328 371.15892398 -155.36621094 360.79052734 C-156.661163 358.46726451 -157.95673619 356.14434778 -159.25292969 353.82177734 C-159.87087402 352.70029297 -160.48881836 351.57880859 -161.12548828 350.42333984 C-163.39911703 346.33144585 -165.77737812 342.30826307 -168.17871094 338.29052734 C-171.61720989 332.47213312 -174.99005201 326.61843877 -178.30371094 320.72802734 C-178.92403198 319.63844727 -178.92403198 319.63844727 -179.55688477 318.52685547 C-185.10994294 308.57614275 -187.7550097 299.8238503 -185.20996094 288.32568359 C-181.75197708 277.69834526 -175.51727047 271.44854965 -166.51074219 265.17724609 C-157.23412362 258.55892 -151.26370491 249.17590881 -148.33886719 238.14208984 C-146.16557987 225.03052176 -147.67401724 212.13876297 -155.17871094 200.91552734 C-159.82149857 194.82678679 -164.6504558 190.03034713 -170.99121094 185.72802734 C-179.07115315 180.2067335 -183.89157422 172.97565031 -185.86621094 163.29052734 C-187.46680411 148.57031803 -178.93579635 136.49264075 -171.86621094 124.29052734 C-171.31545898 123.33823242 -170.76470703 122.3859375 -170.19726562 121.40478516 C-166.66149318 115.30077956 -163.09909543 109.21280105 -159.52636719 103.13037109 C-157.99082513 100.50369091 -156.47176521 97.86842087 -154.95996094 95.22802734 C-154.5178125 94.46111572 -154.07566406 93.6942041 -153.62011719 92.90405273 C-152.82018856 91.51585884 -152.02536938 90.12469946 -151.23730469 88.72973633 C-146.10780811 79.87836713 -140.17668937 73.83898979 -130.61621094 69.97802734 C-118.75931308 67.80426274 -110.03296739 70.37581648 -99.36621094 75.41552734 C-88.71006321 80.20416922 -77.33695158 80.3066537 -66.30371094 76.66552734 C-52.6945084 71.20613585 -44.51126953 63.34687981 -38.12792969 50.31787109 C-35.67180734 44.42469829 -34.59163049 38.73477196 -33.99121094 32.41552734 C-32.80079774 21.91966986 -29.67990188 14.54949378 -21.86621094 7.29052734 C-15.06978182 2.11104365 -8.56878816 -0.01092679 0 0 Z M-24.03173828 122.63305664 C-27.25095603 124.23287024 -30.47833106 125.8153818 -33.70605469 127.39794922 C-35.7886101 128.43270224 -37.87065952 129.46847439 -39.95214844 130.50537109 C-40.90028412 130.96709213 -41.8484198 131.42881317 -42.82528687 131.90452576 C-56.37218411 138.72271979 -67.31739303 148.62074816 -74.24121094 162.16552734 C-74.56299316 162.78878906 -74.88477539 163.41205078 -75.21630859 164.05419922 C-81.36553874 176.81442084 -81.32690165 189.68728843 -81.29980469 203.53271484 C-81.30437557 205.58953014 -81.30968381 207.64634391 -81.31568909 209.70315552 C-81.3245841 213.99813063 -81.32223862 218.29291945 -81.31225586 222.58789062 C-81.30077487 228.05690413 -81.32098329 233.52527108 -81.350173 238.99419975 C-81.36863285 243.23764036 -81.36822307 247.48092883 -81.36253548 251.72439957 C-81.36238344 253.73916658 -81.36832934 255.75394469 -81.38082695 257.76867294 C-81.4903684 278.31968362 -77.83301514 295.34325755 -63.37011719 310.87646484 C-57.40425554 316.62826281 -51.7370001 321.31869582 -44.30371094 325.04052734 C-43.49071533 325.45753906 -42.67771973 325.87455078 -41.84008789 326.30419922 C-32.58033332 331.0159012 -23.21031752 335.50497146 -13.80224609 339.91162109 C-10.85290007 341.29677878 -7.91246914 342.69981297 -4.97167969 344.10302734 C15.65693511 353.84852782 33.96963483 357.81647359 56.13378906 350.29052734 C62.37038648 347.79169097 68.33636647 344.70614763 74.32128906 341.66552734 C75.95570162 340.84841301 77.59088206 340.03283291 79.22680664 339.21875 C81.64947034 338.01291731 84.07154416 336.80607243 86.49052429 335.59286499 C91.84897196 332.90858173 97.25419748 330.35156248 102.70654297 327.86279297 C110.71616626 324.19526798 117.70884804 320.45039222 124.13378906 314.29052734 C124.82085937 313.70271484 125.50792969 313.11490234 126.21582031 312.50927734 C136.17877173 303.51785656 144.52618353 287.90298684 145.23475075 274.36096382 C145.28508961 271.98171451 145.30324815 269.6041397 145.31079102 267.22436523 C145.32064781 265.86711838 145.32064781 265.86711838 145.33070374 264.48245239 C145.35038474 261.49269517 145.36209121 258.5029882 145.37207031 255.51318359 C145.37614584 254.48714964 145.38022137 253.46111568 145.38442039 252.40398979 C145.40526453 246.96732664 145.41957032 241.53068857 145.42895508 236.09399414 C145.43998267 230.5093786 145.47434525 224.92516552 145.51412678 219.34069157 C145.54042183 215.02092304 145.54865857 210.70124828 145.55223656 206.38140678 C145.5570736 204.32475522 145.56860406 202.26810701 145.58727455 200.2115345 C145.77765857 177.84020159 141.01303974 160.78558942 125.38378906 144.16552734 C117.59339249 136.68112423 107.75346958 131.8638337 98.17675781 127.06005859 C97.07133133 126.50235275 95.96590485 125.94464691 94.82698059 125.37004089 C92.50495999 124.20149033 90.18134273 123.03610749 87.85620117 121.8737793 C84.33458426 120.10968734 80.82302879 118.32659729 77.31152344 116.54248047 C75.03802522 115.40132965 72.76395488 114.26131782 70.48925781 113.12255859 C69.45858688 112.59644485 68.42791595 112.07033112 67.36601257 111.52827454 C33.20553485 94.60497548 7.47897112 106.93567044 -24.03173828 122.63305664 Z " fill="#EEFDA8" transform="translate(223.8662109375,27.70947265625)"/>
<path d="M0 0 C0.92296875 -0.02835938 1.8459375 -0.05671875 2.796875 -0.0859375 C12.06519312 1.15123619 20.70012534 5.86176994 28.98046875 9.98828125 C30.05573318 10.52092087 31.13099762 11.05356049 32.23884583 11.6023407 C34.49502104 12.72288386 36.74961702 13.84661195 39.00268555 14.97338867 C42.43227429 16.68489216 45.87101905 18.37693715 49.31054688 20.06835938 C51.51360741 21.16548959 53.71610121 22.26375873 55.91796875 23.36328125 C57.44480537 24.11053215 57.44480537 24.11053215 59.00248718 24.87287903 C66.4842743 28.64955557 74.17887929 33.15558139 78.125 40.875 C78.49367188 41.5659375 78.86234375 42.256875 79.2421875 42.96875 C81.76089883 48.98241736 82.54576496 54.39044535 82.5246582 60.8137207 C82.52976913 61.62773346 82.53488007 62.44174622 82.54014587 63.28042603 C82.55397118 65.95395395 82.55309017 68.62722197 82.55078125 71.30078125 C82.5546726 73.17254226 82.55900818 75.04430239 82.56376648 76.9160614 C82.57121393 80.83396266 82.57094852 84.75177379 82.56567383 88.66967773 C82.55988708 93.66942939 82.57679821 98.66880963 82.6000185 103.66849995 C82.61481308 107.53346381 82.61561967 111.39833947 82.61250877 115.26332664 C82.6130193 117.10555951 82.61820624 118.94779766 82.62832069 120.79000282 C82.74688253 145.40719767 82.74688253 145.40719767 73.25 155.375 C68.32349918 160.11289615 63.21031987 163.2143911 57.0546875 166.125 C56.18538605 166.54620117 55.31608459 166.96740234 54.42044067 167.40136719 C51.65995253 168.73584374 48.89267052 170.05549542 46.125 171.375 C44.29121098 172.2594725 42.45787348 173.1448818 40.625 174.03125 C35.50979725 176.49996696 30.38310052 178.94374431 25.25 181.375 C24.55314087 181.70580566 23.85628174 182.03661133 23.13830566 182.37744141 C15.26178904 186.10735887 9.38014562 188.56383975 0.625 188.6875 C-0.03628906 188.71650391 -0.69757813 188.74550781 -1.37890625 188.77539062 C-12.83873002 188.91836347 -23.41960493 181.66469941 -33.375 176.625 C-34.73548532 175.93972332 -36.09616163 175.25482568 -37.45703125 174.5703125 C-39.49587982 173.54471718 -41.53416984 172.51810084 -43.57055664 171.48762512 C-47.09402149 169.70529766 -50.62501728 167.94118027 -54.171875 166.20581055 C-54.89321625 165.85101624 -55.6145575 165.49622192 -56.35775757 165.13067627 C-57.72848673 164.45732524 -59.10127016 163.7881332 -60.47647095 163.1239624 C-65.65797231 160.57107973 -69.81913088 157.58739025 -73.75 153.375 C-74.513125 152.570625 -75.27625 151.76625 -76.0625 150.9375 C-80.25104986 144.57710947 -81.19539792 138.67728623 -81.15405273 131.25610352 C-81.16091599 130.38181702 -81.16777924 129.50753052 -81.17485046 128.60675049 C-81.19303574 125.73896689 -81.18929287 122.8717347 -81.18359375 120.00390625 C-81.18815945 117.99665653 -81.19346618 115.98940838 -81.19947815 113.98216248 C-81.20839298 109.78353509 -81.20600458 105.58509808 -81.19604492 101.38647461 C-81.18455634 96.02222314 -81.20477359 90.65863008 -81.23396206 85.29446507 C-81.25236131 81.15158456 -81.25202418 77.00886076 -81.24632454 72.86594963 C-81.24617179 70.88891616 -81.25217782 68.91187175 -81.26461601 66.9348774 C-81.27959511 64.16393562 -81.26879859 61.39419672 -81.25170898 58.62329102 C-81.26137695 57.81729965 -81.27104492 57.01130829 -81.28100586 56.18089294 C-81.1639547 47.05761481 -77.00969975 38.9189122 -70.75 32.375 C-64.12558124 27.74874236 -56.73238043 24.21243311 -49.51953125 20.609375 C-48.48487228 20.08990295 -47.45021332 19.57043091 -46.38420105 19.03521729 C-44.21458665 17.94755898 -42.04394316 16.86195123 -39.87231445 15.77832031 C-36.55762872 14.1225667 -33.24843836 12.45617361 -29.93945312 10.7890625 C-27.82063679 9.72851854 -25.70150686 8.6686008 -23.58203125 7.609375 C-22.10836845 6.86563629 -22.10836845 6.86563629 -20.60493469 6.10687256 C-13.81650388 2.73543465 -7.70111726 0.10636902 0 0 Z " fill="#06292F" transform="translate(255.75,161.625)"/>
<path d="M0 0 C3.16190409 1.58503851 6.28062914 3.23107303 9.38964844 4.91748047 C11.51029752 6.06712236 13.63769501 7.2044255 15.77246094 8.32763672 C16.70719238 8.83560791 17.64192383 9.3435791 18.60498047 9.86694336 C22.61038458 11.3549065 24.95131215 10.45078605 28.74072266 8.73168945 C29.59166504 8.27608643 30.44260742 7.8204834 31.31933594 7.35107422 C32.26421875 6.85800781 33.20910156 6.36494141 34.18261719 5.85693359 C36.14949211 4.81633464 38.11306912 3.76947748 40.07324219 2.71630859 C45.40921696 -0.05331641 49.22362359 -1.9709409 55.26464844 -1.14501953 C60.94014397 0.89815886 64.56338564 4.45245488 67.26464844 9.85498047 C67.9281349 15.19550266 67.65584037 19.76167122 64.63183594 24.30810547 C61.97544594 27.31362101 58.79374131 29.02049774 55.26464844 30.85498047 C54.42160156 31.29704834 54.42160156 31.29704834 53.56152344 31.74804688 C41.85784798 37.85498047 41.85784798 37.85498047 39.26464844 37.85498047 C39.2855957 38.60070312 39.30654297 39.34642578 39.328125 40.11474609 C39.41181478 43.52801772 39.46347637 46.94107271 39.51464844 50.35498047 C39.54816406 51.52802734 39.58167969 52.70107422 39.61621094 53.90966797 C39.69678962 61.0811711 39.20054153 65.79370511 35.26464844 71.85498047 C30.41784535 76.35558333 27.27271902 77.21621625 20.80371094 77.13232422 C17.04004441 76.72121603 15.04674656 75.37211687 12.26464844 72.85498047 C8.39762954 67.73379328 7.1360102 64.22581975 7.16699219 57.87451172 C7.17021484 56.71113281 7.1734375 55.54775391 7.17675781 54.34912109 C7.18513672 53.13417969 7.19351563 51.91923828 7.20214844 50.66748047 C7.20666016 49.4409375 7.21117187 48.21439453 7.21582031 46.95068359 C7.22761778 43.91873379 7.24407923 40.88688141 7.26464844 37.85498047 C6.36955566 37.56905029 5.47446289 37.28312012 4.55224609 36.98852539 C0.03091459 35.42959607 -4.10899637 33.34221216 -8.36035156 31.16748047 C-9.20597656 30.75820313 -10.05160156 30.34892578 -10.92285156 29.92724609 C-16.54740068 27.03956354 -19.26188712 24.72694483 -21.73535156 18.85498047 C-22.61355424 14.92035588 -21.94984405 11.46270917 -20.61035156 7.66748047 C-15.7128285 0.32119587 -8.54625412 -3.57746625 0 0 Z " fill="#F4FFAA" transform="translate(232.7353515625,227.14501953125)"/>
</svg>
