<?xml version="1.0" standalone="no"?>
<!DOCTYPE svg PUBLIC "-//W3C//DTD SVG 20010904//EN"
 "http://www.w3.org/TR/2001/REC-SVG-20010904/DTD/svg10.dtd">
<svg version="1.0" xmlns="http://www.w3.org/2000/svg"
 width="512.000000pt" height="512.000000pt" viewBox="0 0 512.000000 512.000000"
 preserveAspectRatio="xMidYMid meet">

<g transform="translate(0.000000,512.000000) scale(0.100000,-0.100000)"
fill="#000000" stroke="none">
<path d="M2305 4676 c-250 -50 -410 -175 -521 -409 -18 -40 -43 -108 -54 -151
-19 -76 -20 -110 -20 -848 0 -834 -2 -795 54 -856 73 -81 221 -84 304 -8 60
53 57 12 62 846 l5 765 23 55 c51 121 116 179 225 201 109 22 238 -28 299
-116 46 -67 60 -121 68 -255 8 -147 26 -194 92 -237 56 -37 155 -44 220 -15
87 38 118 108 118 262 -1 253 -60 409 -215 565 -91 91 -190 150 -315 185 -98
27 -253 34 -345 16z"/>
<path d="M2465 3393 c-78 -41 -115 -103 -115 -193 0 -89 37 -152 112 -191 36
-18 69 -19 771 -19 752 0 814 -3 887 -40 46 -23 62 -42 99 -117 42 -83 55
-156 41 -235 -21 -113 -63 -167 -170 -216 -46 -22 -76 -27 -188 -32 -122 -7
-136 -10 -179 -36 -63 -39 -93 -97 -93 -178 0 -73 24 -131 69 -169 50 -41 99
-50 256 -44 159 6 243 26 358 84 138 69 276 240 341 421 30 83 31 94 31 242 0
134 -3 165 -23 230 -75 241 -276 421 -546 490 -76 19 -109 20 -850 20 -683 -1
-774 -3 -801 -17z"/>
<path d="M1015 3185 c-38 -7 -90 -20 -115 -29 -192 -70 -355 -245 -434 -464
-30 -83 -31 -94 -31 -242 0 -134 3 -165 23 -230 75 -241 276 -421 546 -490 76
-19 110 -20 848 -20 736 0 770 1 806 19 75 39 112 101 112 191 0 66 -16 107
-59 153 -54 59 -29 57 -816 57 -446 0 -743 4 -776 10 -29 6 -82 25 -118 43
-60 30 -68 38 -98 98 -47 92 -58 163 -39 239 47 184 124 238 354 250 122 7
136 10 179 36 63 39 93 97 93 178 -1 104 -53 182 -138 206 -51 14 -252 11
-337 -5z"/>
<path d="M3085 2756 c-40 -17 -84 -63 -101 -103 -11 -26 -14 -168 -14 -750 0
-720 -5 -824 -36 -886 -55 -108 -151 -171 -263 -171 -132 -1 -226 56 -282 170
-30 60 -33 76 -39 200 -7 125 -10 138 -36 181 -39 63 -97 93 -178 93 -106 -1
-182 -53 -207 -143 -15 -56 -6 -304 15 -382 9 -33 35 -98 58 -145 79 -158 242
-290 443 -357 72 -25 95 -27 225 -28 133 0 152 2 233 29 150 49 253 130 348
275 27 41 62 108 80 149 59 143 59 136 59 967 0 718 -1 762 -19 800 -22 48
-54 79 -103 100 -45 18 -142 19 -183 1z"/>
</g>
</svg>
